<svg width="44" height="44" viewBox="0 0 44 44" fill="none" xmlns="http://www.w3.org/2000/svg"><path d="M8.26667 8.26667C11.935 4.59834 16.8122 2.57812 22 2.57812C25.9672 2.57812 29.8028 3.78495 33.0284 6.01279L30.5382 6.2682L30.8013 8.83283L37.5044 8.14533L36.8169 1.4422L34.2522 1.70526L34.4751 3.8787C30.8247 1.36271 26.4866 0 22 0C16.1236 0 10.5989 2.28843 6.44368 6.44368C2.28843 10.5989 0 16.1236 0 22C0 26.3993 1.29456 30.6457 3.7437 34.28L5.88165 32.8393C5.852 32.7952 5.82321 32.7508 5.79391 32.7065C3.68998 29.5289 2.57812 25.8307 2.57812 22C2.57812 16.8123 4.59834 11.935 8.26667 8.26667Z" fill="#629D23" style="--darkreader-inline-fill: var(--darkreader-background-629d23, #4e7e1c);" data-darkreader-inline-fill=""></path><path d="M40.2564 9.71996L38.1184 11.1607C38.148 11.2047 38.1768 11.2493 38.2061 11.2935C40.3099 14.4711 41.4219 18.1693 41.4219 22C41.4219 27.1878 39.4017 32.065 35.7333 35.7333C32.0651 39.4017 27.1879 41.4219 22 41.4219C18.0328 41.4219 14.1972 40.2151 10.9716 37.9872L13.4618 37.7318L13.1987 35.1672L6.49559 35.8547L7.18309 42.5578L9.7478 42.2947L9.52488 40.1213C13.1754 42.6373 17.5135 44 22 44C27.8764 44 33.4011 41.7116 37.5564 37.5563C41.7117 33.4011 44 27.8764 44 22C44 17.6007 42.7055 13.3543 40.2564 9.71996Z" fill="#629D23" style="--darkreader-inline-fill: var(--darkreader-background-629d23, #4e7e1c);" data-darkreader-inline-fill=""></path><path d="M10.7407 24.7057L12.4096 23.1632C13.6739 22 13.9142 21.2161 13.9142 20.3564C13.9142 18.7127 12.5108 17.6633 10.4753 17.6633C8.73048 17.6633 7.4788 18.3966 6.80874 19.5093L8.66731 20.546C9.02129 19.9771 9.60291 19.6863 10.2477 19.6863C11.0063 19.6863 11.3856 20.0276 11.3856 20.5966C11.3856 20.9633 11.2845 21.3679 10.5764 22.0254L7.26387 25.123V26.6907H14.1544V24.7057L10.7407 24.7057Z" fill="#629D23" style="--darkreader-inline-fill: var(--darkreader-text-629d23, #a4dd67);" data-darkreader-inline-fill=""></path><path d="M22.1076 24.9965H23.4224V23.0115H22.1076V21.507H19.7433V23.0115H17.948L21.5512 17.8404H18.9594L14.9894 23.3655V24.9965H19.6674V26.6906H22.1076V24.9965Z" fill="#629D23" style="--darkreader-inline-fill: var(--darkreader-text-629d23, #a4dd67);" data-darkreader-inline-fill=""></path><path d="M25.6986 27.955L29.8708 16.045H27.7341L23.5618 27.955H25.6986Z" fill="#629D23" style="--darkreader-inline-fill: var(--darkreader-text-629d23, #a4dd67);" data-darkreader-inline-fill=""></path><path d="M31.995 21.1908V19.8254H34.3213L31.3375 26.6906H34.0685L37.1913 19.4081V17.8404H29.8582V21.1908H31.995Z" fill="#629D23" style="--darkreader-inline-fill: var(--darkreader-text-629d23, #a4dd67);" data-darkreader-inline-fill=""></path></svg>